# xmcd
#
# Track frame offsets:
#	150
#	22267
#	44655
#	62145
#	74895
#	92695
#	115700
#	130057
#	149040
#	165440
#
# Disc length: 2401 seconds
#
# Revision: 0
# Processed by: cddbd v1.5.2PL0 Copyright (c) Steve Scherf et al.
# Submitted via: EasyCDDAExtractor 10.0.1.1
#
DISCID=9a095f0a
DTITLE=Marcos Góes - Simplesmente
DYEAR=1900
DGENRE=Gospel
TTITLE0=A Guerra é do Senhor
TTITLE1=É Necessário Morre
TTITLE2=Tudo é Você
TTITLE3=Até o Amanhecer
TTITLE4=Tudo Novo em Mim
TTITLE5=Eu Vejo Deus
TTITLE6=Coração Livre
TTITLE7=O Vento do espirito
TTITLE8=Canção da Amizade
TTITLE9=Aleluia
EXTD=
EXTT0=
EXTT1=
EXTT2=
EXTT3=
EXTT4=
EXTT5=
EXTT6=
EXTT7=
EXTT8=
EXTT9=
PLAYORDER=
